<mxfile host="app.diagrams.net" agent="Mozilla/5.0 (Macintosh; Intel Mac OS X 10_15_7) AppleWebKit/537.36 (KHTML, like Gecko) Chrome/136.0.0.0 Safari/537.36" version="27.1.6">
  <diagram name="Page-1" id="2VNvsaiyCYB8qkoAZ7Qa">
    <mxGraphModel dx="1100" dy="1914" grid="1" gridSize="10" guides="1" tooltips="1" connect="1" arrows="1" fold="1" page="1" pageScale="1" pageWidth="827" pageHeight="1169" math="0" shadow="0">
      <root>
        <mxCell id="0" />
        <mxCell id="1" parent="0" />
        <mxCell id="IjzhqkyLmClslWE1_LPw-7" value="&lt;font face=&quot;Courier New&quot; style=&quot;font-size: 9px;&quot;&gt;pick up tool&lt;/font&gt;" style="text;html=1;align=center;verticalAlign=middle;whiteSpace=wrap;rounded=0;fillColor=#EFF1F0;" parent="1" vertex="1">
          <mxGeometry x="560" y="-1020" width="70" height="20" as="geometry" />
        </mxCell>
        <mxCell id="2lqT7FHwx7aPYU6H5I6q-1" value="&lt;div&gt;&lt;font face=&quot;quote cj&quot;&gt;&lt;span style=&quot;font-size: 10px;&quot;&gt;&lt;i&gt;Enter your name: {player_name}&lt;/i&gt;&lt;/span&gt;&lt;/font&gt;&lt;/div&gt;&lt;div&gt;&lt;font face=&quot;quote cj&quot;&gt;&lt;span style=&quot;font-size: 10px;&quot;&gt;&lt;i&gt;Welcome to the Sci-Fi Adventure, {player_name}!&lt;/i&gt;&lt;/span&gt;&lt;/font&gt;&lt;/div&gt;&lt;div&gt;&lt;i style=&quot;font-family: &amp;quot;quote cj&amp;quot;; font-size: 10px;&quot;&gt;Maintenance Tunnels&lt;/i&gt;&lt;/div&gt;" style="whiteSpace=wrap;html=1;aspect=fixed;fillColor=#fff2cc;strokeColor=#d6b656;" parent="1" vertex="1">
          <mxGeometry x="30" y="-1060" width="130" height="130" as="geometry" />
        </mxCell>
        <mxCell id="2lqT7FHwx7aPYU6H5I6q-2" value="&lt;font face=&quot;quote cj&quot;&gt;&lt;span style=&quot;font-size: 10px;&quot;&gt;&lt;i&gt;You&#39;re in the dim Maintenance Tunnels. Exposed wires hum with residual power. A diagnostic tool glows on the floor.&amp;nbsp;&amp;nbsp;To the EAST, a flickering service droid blocks the path, its circuits sparking erratically.&lt;/i&gt;&lt;/span&gt;&lt;/font&gt;" style="whiteSpace=wrap;html=1;aspect=fixed;fillColor=#fff2cc;strokeColor=#d6b656;" parent="1" vertex="1">
          <mxGeometry x="230" y="-1060" width="130" height="130" as="geometry" />
        </mxCell>
        <mxCell id="2lqT7FHwx7aPYU6H5I6q-4" style="edgeStyle=orthogonalEdgeStyle;rounded=0;orthogonalLoop=1;jettySize=auto;html=1;fillColor=#ffe6cc;strokeColor=#d79b00;entryX=0;entryY=0.5;entryDx=0;entryDy=0;" parent="1" target="2lqT7FHwx7aPYU6H5I6q-2" edge="1">
          <mxGeometry relative="1" as="geometry">
            <mxPoint x="200" y="-995" as="targetPoint" />
            <mxPoint x="160" y="-995.38" as="sourcePoint" />
          </mxGeometry>
        </mxCell>
        <mxCell id="2lqT7FHwx7aPYU6H5I6q-5" value="&lt;div&gt;&lt;font face=&quot;quote cj&quot;&gt;&lt;span style=&quot;font-size: 10px;&quot;&gt;&lt;i&gt;You see a diagnostic tool here.&amp;nbsp;&lt;/i&gt;&lt;/span&gt;&lt;/font&gt;&lt;/div&gt;&lt;div&gt;&lt;font face=&quot;quote cj&quot;&gt;&lt;span style=&quot;font-size: 10px;&quot;&gt;&lt;i&gt;&lt;br&gt;&lt;/i&gt;&lt;/span&gt;&lt;/font&gt;&lt;/div&gt;&lt;div&gt;&lt;font face=&quot;quote cj&quot;&gt;&lt;span style=&quot;font-size: 10px;&quot;&gt;&lt;i&gt;A maintenance droid blocks the way!&amp;nbsp;&lt;/i&gt;&lt;/span&gt;&lt;/font&gt;&lt;/div&gt;&lt;div&gt;&lt;font face=&quot;quote cj&quot;&gt;&lt;span style=&quot;font-size: 10px;&quot;&gt;&lt;i&gt;&lt;br&gt;&lt;/i&gt;&lt;/span&gt;&lt;/font&gt;&lt;/div&gt;&lt;div&gt;&lt;font face=&quot;quote cj&quot;&gt;&lt;span style=&quot;font-size: 10px;&quot;&gt;&lt;i&gt;Exits: east.&lt;/i&gt;&lt;/span&gt;&lt;/font&gt;&lt;/div&gt;&lt;div&gt;&lt;font face=&quot;quote cj&quot;&gt;&lt;span style=&quot;font-size: 10px;&quot;&gt;&lt;i&gt;&lt;br&gt;&lt;/i&gt;&lt;/span&gt;&lt;/font&gt;&lt;/div&gt;&lt;div&gt;&lt;font face=&quot;quote cj&quot;&gt;&lt;span style=&quot;font-size: 10px;&quot;&gt;&lt;i&gt;What do you want to do?&amp;nbsp;&lt;/i&gt;&lt;/span&gt;&lt;/font&gt;&lt;/div&gt;" style="whiteSpace=wrap;html=1;aspect=fixed;fillColor=#fff2cc;strokeColor=#d6b656;" parent="1" vertex="1">
          <mxGeometry x="430" y="-1060" width="130" height="130" as="geometry" />
        </mxCell>
        <mxCell id="2lqT7FHwx7aPYU6H5I6q-7" style="edgeStyle=orthogonalEdgeStyle;rounded=0;orthogonalLoop=1;jettySize=auto;html=1;fillColor=#ffe6cc;strokeColor=#d79b00;entryX=0;entryY=0.5;entryDx=0;entryDy=0;exitX=1;exitY=0.5;exitDx=0;exitDy=0;" parent="1" source="2lqT7FHwx7aPYU6H5I6q-2" target="2lqT7FHwx7aPYU6H5I6q-5" edge="1">
          <mxGeometry relative="1" as="geometry">
            <mxPoint x="460" y="-999.62" as="targetPoint" />
            <mxPoint x="390" y="-1000" as="sourcePoint" />
          </mxGeometry>
        </mxCell>
        <mxCell id="2lqT7FHwx7aPYU6H5I6q-8" style="edgeStyle=orthogonalEdgeStyle;rounded=0;orthogonalLoop=1;jettySize=auto;html=1;fillColor=#ffe6cc;strokeColor=#d79b00;exitX=1;exitY=0.5;exitDx=0;exitDy=0;entryX=0;entryY=0.5;entryDx=0;entryDy=0;" parent="1" source="2lqT7FHwx7aPYU6H5I6q-5" target="2lqT7FHwx7aPYU6H5I6q-29" edge="1">
          <mxGeometry relative="1" as="geometry">
            <mxPoint x="632.3399999999999" y="-1000.2" as="targetPoint" />
            <mxPoint x="630" y="-970" as="sourcePoint" />
          </mxGeometry>
        </mxCell>
        <mxCell id="2lqT7FHwx7aPYU6H5I6q-22" style="edgeStyle=orthogonalEdgeStyle;rounded=0;orthogonalLoop=1;jettySize=auto;html=1;fillColor=#fff2cc;strokeColor=#d6b656;" parent="1" target="2lqT7FHwx7aPYU6H5I6q-16" edge="1">
          <mxGeometry relative="1" as="geometry">
            <mxPoint x="695.0000000000002" y="-930" as="sourcePoint" />
            <Array as="points">
              <mxPoint x="95" y="-920" />
            </Array>
          </mxGeometry>
        </mxCell>
        <mxCell id="2lqT7FHwx7aPYU6H5I6q-13" value="&lt;font face=&quot;Courier New&quot; style=&quot;font-size: 9px;&quot;&gt;use tool&lt;/font&gt;" style="text;html=1;align=center;verticalAlign=middle;whiteSpace=wrap;rounded=0;fillColor=#EFF1F0;" parent="1" vertex="1">
          <mxGeometry x="160" y="-860" width="70" height="20" as="geometry" />
        </mxCell>
        <mxCell id="2lqT7FHwx7aPYU6H5I6q-21" style="edgeStyle=orthogonalEdgeStyle;rounded=0;orthogonalLoop=1;jettySize=auto;html=1;entryX=0;entryY=0.5;entryDx=0;entryDy=0;fillColor=#fff2cc;strokeColor=#d6b656;" parent="1" source="2lqT7FHwx7aPYU6H5I6q-15" target="2lqT7FHwx7aPYU6H5I6q-24" edge="1">
          <mxGeometry relative="1" as="geometry">
            <mxPoint x="430" y="-835" as="targetPoint" />
          </mxGeometry>
        </mxCell>
        <mxCell id="2lqT7FHwx7aPYU6H5I6q-15" value="&lt;div&gt;&lt;font face=&quot;quote cj&quot;&gt;&lt;span style=&quot;font-size: 10px;&quot;&gt;&lt;i&gt;You use the tool to repair the droid. It moves aside! (Score: 30 | Hazards: 0)&lt;/i&gt;&lt;/span&gt;&lt;/font&gt;&lt;/div&gt;&lt;div&gt;&lt;font face=&quot;quote cj&quot;&gt;&lt;i style=&quot;&quot;&gt;&lt;span style=&quot;font-size: 10px;&quot;&gt;Maintenance Tunnels&lt;/span&gt;&lt;br&gt;&lt;div style=&quot;&quot;&gt;&lt;span style=&quot;font-size: 10px;&quot;&gt;The tunnels are quiet now. The droid no longer blocks the east exit.&amp;nbsp;&lt;/span&gt;&lt;span style=&quot;font-size: 10px; background-color: transparent; color: light-dark(rgb(0, 0, 0), rgb(255, 255, 255));&quot;&gt;Exits: east.&lt;/span&gt;&lt;/div&gt;&lt;div style=&quot;&quot;&gt;&lt;span style=&quot;font-size: 10px;&quot;&gt;What do you want to do?&lt;/span&gt;&lt;/div&gt;&lt;br&gt;&lt;/i&gt;&lt;/font&gt;&lt;/div&gt;" style="whiteSpace=wrap;html=1;aspect=fixed;fillColor=#fff2cc;strokeColor=#d6b656;" parent="1" vertex="1">
          <mxGeometry x="230" y="-900" width="130" height="130" as="geometry" />
        </mxCell>
        <mxCell id="2lqT7FHwx7aPYU6H5I6q-18" style="edgeStyle=orthogonalEdgeStyle;rounded=0;orthogonalLoop=1;jettySize=auto;html=1;entryX=0;entryY=0.5;entryDx=0;entryDy=0;fillColor=#fff2cc;strokeColor=#d6b656;" parent="1" source="2lqT7FHwx7aPYU6H5I6q-16" target="2lqT7FHwx7aPYU6H5I6q-15" edge="1">
          <mxGeometry relative="1" as="geometry" />
        </mxCell>
        <mxCell id="2lqT7FHwx7aPYU6H5I6q-16" value="&lt;font face=&quot;quote cj&quot;&gt;&lt;span style=&quot;font-size: 10px;&quot;&gt;&lt;i&gt;The tunnels are quieter now. The droid still blocks the east exit, whirring in distress.&lt;br&gt;&lt;br&gt;&lt;/i&gt;&lt;/span&gt;&lt;/font&gt;&lt;div&gt;&lt;font face=&quot;quote cj&quot;&gt;&lt;span style=&quot;font-size: 10px;&quot;&gt;&lt;i&gt;&lt;div style=&quot;&quot;&gt;A maintenance droid blocks the way!&amp;nbsp;&lt;/div&gt;&lt;div style=&quot;&quot;&gt;&lt;br&gt;&lt;/div&gt;&lt;div style=&quot;&quot;&gt;Exits: east.&lt;/div&gt;&lt;div style=&quot;&quot;&gt;&lt;br&gt;&lt;/div&gt;&lt;div style=&quot;&quot;&gt;What do you want to do?&lt;/div&gt;&lt;/i&gt;&lt;/span&gt;&lt;/font&gt;&lt;/div&gt;" style="whiteSpace=wrap;html=1;aspect=fixed;fillColor=#fff2cc;strokeColor=#d6b656;" parent="1" vertex="1">
          <mxGeometry x="30" y="-900" width="130" height="130" as="geometry" />
        </mxCell>
        <mxCell id="2lqT7FHwx7aPYU6H5I6q-19" value="&lt;font face=&quot;Courier New&quot; style=&quot;font-size: 9px;&quot;&gt;move east&lt;/font&gt;" style="text;html=1;align=center;verticalAlign=middle;whiteSpace=wrap;rounded=0;fillColor=#EFF1F0;" parent="1" vertex="1">
          <mxGeometry x="360" y="-860" width="70" height="20" as="geometry" />
        </mxCell>
        <mxCell id="2lqT7FHwx7aPYU6H5I6q-30" style="edgeStyle=orthogonalEdgeStyle;rounded=0;orthogonalLoop=1;jettySize=auto;html=1;fillColor=#fff2cc;strokeColor=#d6b656;entryX=0;entryY=0.5;entryDx=0;entryDy=0;" parent="1" source="2lqT7FHwx7aPYU6H5I6q-24" target="2lqT7FHwx7aPYU6H5I6q-32" edge="1">
          <mxGeometry relative="1" as="geometry">
            <mxPoint x="640" y="-835" as="targetPoint" />
          </mxGeometry>
        </mxCell>
        <mxCell id="2lqT7FHwx7aPYU6H5I6q-24" value="&lt;div&gt;&lt;font face=&quot;quote cj&quot;&gt;&lt;span style=&quot;font-size: 10px;&quot;&gt;&lt;i&gt;You move east.&lt;br&gt;Docking Bay&lt;br&gt;A vast open space where ships dock and depart.&lt;br&gt;You see an energy crystal here.&lt;br&gt;Exits: west.&lt;br&gt;What do you want to do?&lt;/i&gt;&lt;/span&gt;&lt;/font&gt;&lt;/div&gt;" style="whiteSpace=wrap;html=1;aspect=fixed;fillColor=#fff2cc;strokeColor=#d6b656;" parent="1" vertex="1">
          <mxGeometry x="430" y="-900" width="130" height="130" as="geometry" />
        </mxCell>
        <mxCell id="2lqT7FHwx7aPYU6H5I6q-27" value="&lt;font face=&quot;Courier New&quot; style=&quot;font-size: 8px;&quot;&gt;pick up crystal&lt;/font&gt;" style="text;html=1;align=center;verticalAlign=middle;whiteSpace=wrap;rounded=0;fillColor=#EFF1F0;" parent="1" vertex="1">
          <mxGeometry x="560" y="-860" width="75" height="20" as="geometry" />
        </mxCell>
        <mxCell id="2lqT7FHwx7aPYU6H5I6q-29" value="&lt;div&gt;&lt;font face=&quot;quote cj&quot;&gt;&lt;span style=&quot;font-size: 10px;&quot;&gt;&lt;i&gt;You pick up the diagnostic tool.&lt;br&gt;&lt;br&gt;(Score: 10 | Hazards: 0)&lt;br&gt;&lt;br&gt;Maintenance Tools&lt;/i&gt;&lt;/span&gt;&lt;/font&gt;&lt;/div&gt;" style="whiteSpace=wrap;html=1;aspect=fixed;fillColor=#fff2cc;strokeColor=#d6b656;" parent="1" vertex="1">
          <mxGeometry x="630" y="-1060" width="130" height="130" as="geometry" />
        </mxCell>
        <mxCell id="6TAB7N-lBb667xj3ByWY-5" style="edgeStyle=orthogonalEdgeStyle;rounded=0;orthogonalLoop=1;jettySize=auto;html=1;fillColor=#fff2cc;strokeColor=#d6b656;" edge="1" parent="1" source="2lqT7FHwx7aPYU6H5I6q-32" target="6TAB7N-lBb667xj3ByWY-3">
          <mxGeometry relative="1" as="geometry">
            <Array as="points">
              <mxPoint x="700" y="-750" />
              <mxPoint x="395" y="-750" />
            </Array>
          </mxGeometry>
        </mxCell>
        <mxCell id="2lqT7FHwx7aPYU6H5I6q-32" value="&lt;div&gt;&lt;font face=&quot;quote cj&quot;&gt;&lt;i style=&quot;&quot;&gt;&lt;span style=&quot;font-size: 10px;&quot;&gt;You pick up the energy crystal.(Score: 80 | Hazards: 0)&lt;/span&gt;&lt;br&gt;&lt;span style=&quot;font-size: 10px;&quot;&gt;Docking Bay&lt;/span&gt;&lt;br&gt;&lt;span style=&quot;font-size: 10px;&quot;&gt;The crystal glows with a steady, stable energy. The docking bay is now safe to enter.&lt;br&gt;Exits: west.&lt;/span&gt;&lt;br&gt;&lt;span style=&quot;font-size: 10px;&quot;&gt;What do you want to do?&lt;/span&gt;&lt;/i&gt;&lt;/font&gt;&lt;/div&gt;" style="whiteSpace=wrap;html=1;aspect=fixed;fillColor=#fff2cc;strokeColor=#d6b656;" parent="1" vertex="1">
          <mxGeometry x="635" y="-900" width="130" height="130" as="geometry" />
        </mxCell>
        <mxCell id="6TAB7N-lBb667xj3ByWY-3" value="&lt;div&gt;&lt;font face=&quot;quote cj&quot;&gt;&lt;i style=&quot;&quot;&gt;&lt;span style=&quot;font-size: 10px;&quot;&gt;You escaped the Sci-Fi Station!&lt;/span&gt;&lt;br&gt;&lt;br&gt;&lt;span style=&quot;font-size: 10px;&quot;&gt;Mission complete! (Final Score: 110 | Total Hazards: 0)&lt;/span&gt;&lt;/i&gt;&lt;/font&gt;&lt;/div&gt;" style="whiteSpace=wrap;html=1;aspect=fixed;fillColor=#fff2cc;strokeColor=#d6b656;" vertex="1" parent="1">
          <mxGeometry x="330" y="-730" width="130" height="130" as="geometry" />
        </mxCell>
      </root>
    </mxGraphModel>
  </diagram>
</mxfile>
